<?xml version="1.0" encoding="utf-8"?>

<?xml-stylesheet href='https://fonts.googleapis.com/css?family=Patua+One' type='text/css'?>

<!DOCTYPE svg PUBLIC "-//W3C//DTD SVG 1.1//EN" "http://www.w3.org/Graphics/SVG/1.1/DTD/svg11.dtd">
<svg version="1.1" id="Layer_1" xmlns="http://www.w3.org/2000/svg" xmlns:xlink="http://www.w3.org/1999/xlink" x="0px" y="0px"
	 width="432.54px" height="612px" viewBox="0 0 432.54 612" enable-background="new 0 0 432.54 612" xml:space="preserve">
	<defs>
		<style type="text/css"><![CDATA[
			circle {
				stroke: #909;
				stroke-width: 10;
				fill: #f6f;
			}
		]]></style>
	</defs>
<g>
	<path fill="#E82427" d="M327.923,244.702c-10.534,52.732-57.081,92.456-112.902,92.456c-55.825,0-102.369-39.724-112.904-92.456
		H327.923z"/>
	<path fill="#E82427" d="M215.021,70.833c-83.505,0-151.19,67.688-151.19,151.189c0,7.711,0.582,15.283,1.698,22.679
		c0.477,3.198,1.045,6.361,1.732,9.478c0.011,0.059,0.023,0.105,0.036,0.151c1.243,4.71,3.011,11.083,5.466,18.979
		c0,0.048,0.023,0.082,0.045,0.13c14.096,45.438,50.475,140.977,133.49,259.102c0,0,3.173,4.758,7.56,5.526h2.327
		c4.386-0.769,7.558-5.526,7.558-5.526c83.017-118.125,119.392-213.664,133.489-259.102c0.023-0.048,0.046-0.082,0.046-0.13
		c2.454-7.896,4.221-14.269,5.467-18.979c0.009-0.046,0.023-0.093,0.033-0.151c0.69-3.116,1.258-6.279,1.735-9.478
		c1.112-7.396,1.694-14.968,1.694-22.679C366.207,138.521,298.523,70.833,215.021,70.833z M327.923,244.702
		c-10.534,52.732-57.081,92.456-112.902,92.456c-55.825,0-102.369-39.724-112.904-92.456c-1.466-7.327-2.233-14.91-2.233-22.679
		c0-63.592,51.543-115.135,115.138-115.135c63.593,0,115.133,51.543,115.133,115.135
		C330.154,229.792,329.391,237.375,327.923,244.702z"/>
	<path fill="#E82427" d="M330.154,222.022c0,7.769-0.763,15.352-2.23,22.679c-10.534,52.732-57.081,92.456-112.902,92.456
		c-55.825,0-102.368-39.724-112.904-92.456c-1.466-7.327-2.233-14.91-2.233-22.679c0-63.592,51.543-115.135,115.137-115.135
		C278.614,106.887,330.154,158.431,330.154,222.022z"/>
	<path fill="#FCDF00" d="M330.154,222.022c0,7.769-0.763,15.352-2.23,22.679c-10.534,52.732-57.081,92.456-112.902,92.456
		c-55.825,0-102.368-39.724-112.904-92.456c-1.466-7.327-2.233-14.91-2.233-22.679c0-63.592,51.543-115.135,115.137-115.135
		C278.614,106.887,330.154,158.431,330.154,222.022z"/>
	
		<text transform="matrix(1 0 0 1 134.5059 267.0103)" fill="#2699CC" font-family="'Patua One'" font-size="174.979" letter-spacing="4">SJ</text>
</g>
</svg>
